<svg width="64" height="64" viewBox="0 0 64 64" fill="none" xmlns="http://www.w3.org/2000/svg">
  <rect width="64" height="64" rx="12" fill="#000000"/>
  <path d="M32 12C40.8 12 48 19.2 48 28C48 32.4 46 36.4 42.8 39.2L48 44.4L44.4 48L39.2 42.8C36.4 46 32.4 48 28 48C19.2 48 12 40.8 12 32C12 23.2 19.2 16 28 16C29.2 16 30.4 16.2 31.6 16.4C29.6 18.8 28.4 21.8 28.4 25.2C28.4 32.4 34 38 41.2 38C44.6 38 47.6 36.8 50 34.8C50.2 36 50.4 37.2 50.4 38.4C50.4 47.2 43.2 54.4 34.4 54.4C30 54.4 26 52.4 23.2 49.2L18 54.4L14.4 50.8L19.6 45.6C16.4 42.8 14.4 38.8 14.4 34.4C14.4 25.6 21.6 18.4 30.4 18.4C31.6 18.4 32.8 18.6 34 18.8" stroke="#3B82F6" stroke-width="3" stroke-linecap="round"/>
  <text x="32" y="42" font-family="Arial, sans-serif" font-size="36" font-weight="bold" fill="#3B82F6" text-anchor="middle">S</text>
</svg>
